<svg width="10" height="6" viewBox="0 0 10 6" fill="none" xmlns="http://www.w3.org/2000/svg">
<path d="M1.94212 0.587117C1.65151 0.332156 1.20924 0.361054 0.954274 0.651664C0.699313 0.942273 0.728211 1.38455 1.01882 1.63951L1.94212 0.587117ZM5.12832 4.31369L4.66667 4.83988L5.12836 5.24494L5.59001 4.83984L5.12832 4.31369ZM9.23721 1.63947C9.5278 1.38448 9.55666 0.942205 9.30167 0.651618C9.04668 0.361031 8.60441 0.332171 8.31382 0.587157L9.23721 1.63947ZM1.01882 1.63951L4.66667 4.83988L5.58996 3.78749L1.94212 0.587117L1.01882 1.63951ZM5.59001 4.83984L9.23721 1.63947L8.31382 0.587157L4.66662 3.78753L5.59001 4.83984Z" fill="white"/>
</svg>
